<svg xmlns="http://www.w3.org/2000/svg" xmlns:xlink="http://www.w3.org/1999/xlink" viewBox="0 0 237 96"><defs><style>.cls-1{fill:url(#linear-gradient);}.cls-2{fill:url(#linear-gradient-2);}.cls-3{fill:url(#linear-gradient-3);}.cls-4{fill:url(#linear-gradient-4);}.cls-5{fill:url(#linear-gradient-5);}.cls-6{fill:url(#linear-gradient-6);}.cls-7{fill:url(#linear-gradient-7);}.cls-8{fill:url(#linear-gradient-8);}.cls-9{fill:url(#linear-gradient-9);}.cls-10{fill:url(#linear-gradient-10);}.cls-11{fill:url(#linear-gradient-11);}.cls-12{fill:#fddde6;}.cls-13,.cls-15{fill:#f7386d;}.cls-13{fill-opacity:0.86;}.cls-13,.cls-16{stroke:#f7386d;}.cls-14{fill:#fdf0f5;}.cls-16{fill:none;stroke-width:1.8px;}.cls-17{fill:url(#linear-gradient-12);}.cls-18{fill:url(#linear-gradient-13);}.cls-19{fill:url(#linear-gradient-14);}.cls-20{fill:url(#linear-gradient-15);}.cls-21{fill:url(#linear-gradient-16);}</style><linearGradient id="linear-gradient" x1="118.5" y1="-153.65" x2="118.5" y2="-249.65" gradientTransform="matrix(1, 0, 0, -1, 0, -153.65)" gradientUnits="userSpaceOnUse"><stop offset="0" stop-color="#fef8fc"/><stop offset="1" stop-color="#ffdde6"/></linearGradient><linearGradient id="linear-gradient-2" x1="222" y1="96" x2="222" y2="24" gradientUnits="userSpaceOnUse"><stop offset="0" stop-color="#ffd8e2"/><stop offset="1" stop-color="#fed9e3"/></linearGradient><linearGradient id="linear-gradient-3" x1="208" y1="96" x2="208" y2="49" xlink:href="#linear-gradient-2"/><linearGradient id="linear-gradient-4" x1="166" y1="96" x2="166" y2="66" xlink:href="#linear-gradient-2"/><linearGradient id="linear-gradient-5" x1="152" y1="96" x2="152" y2="68" xlink:href="#linear-gradient-2"/><linearGradient id="linear-gradient-6" x1="138" y1="96" x2="138" y2="58" xlink:href="#linear-gradient-2"/><linearGradient id="linear-gradient-7" x1="110" y1="96" x2="110" y2="56" xlink:href="#linear-gradient-2"/><linearGradient id="linear-gradient-8" x1="96" y1="96" x2="96" y2="34" xlink:href="#linear-gradient-2"/><linearGradient id="linear-gradient-9" x1="82" y1="96" x2="82" y2="49" xlink:href="#linear-gradient-2"/><linearGradient id="linear-gradient-10" x1="68" y1="96" x2="68" y2="58" xlink:href="#linear-gradient-2"/><linearGradient id="linear-gradient-11" x1="54" y1="96" x2="54" y2="66" xlink:href="#linear-gradient-2"/><linearGradient id="linear-gradient-12" x1="26" y1="96" x2="26" y2="73" xlink:href="#linear-gradient-2"/><linearGradient id="linear-gradient-13" x1="40" y1="96" x2="40" y2="64" xlink:href="#linear-gradient-2"/><linearGradient id="linear-gradient-14" x1="124" y1="96" x2="124" y2="68" xlink:href="#linear-gradient-2"/><linearGradient id="linear-gradient-15" x1="180" y1="96" x2="180" y2="61" xlink:href="#linear-gradient-2"/><linearGradient id="linear-gradient-16" x1="194" y1="96" x2="194" y2="56" xlink:href="#linear-gradient-2"/></defs><g id="Layer_2" data-name="Layer 2"><g id="Layer_1-2" data-name="Layer 1"><rect class="cls-1" width="237" height="96" rx="6"/><path class="cls-2" d="M226,26V96h-8V26a2,2,0,0,1,2-2h4A2,2,0,0,1,226,26Z"/><path class="cls-3" d="M212,51V96h-8V51a2,2,0,0,1,2-2h4A2,2,0,0,1,212,51Z"/><path class="cls-4" d="M170,68V96h-8V68a2,2,0,0,1,2-2h4A2,2,0,0,1,170,68Z"/><path class="cls-5" d="M156,70V96h-8V70a2,2,0,0,1,2-2h4A2,2,0,0,1,156,70Z"/><path class="cls-6" d="M142,60V96h-8V60a2,2,0,0,1,2-2h4A2,2,0,0,1,142,60Z"/><path class="cls-7" d="M114,58V96h-8V58a2,2,0,0,1,2-2h4A2,2,0,0,1,114,58Z"/><path class="cls-8" d="M100,36V96H92V36a2,2,0,0,1,2-2h4A2,2,0,0,1,100,36Z"/><path class="cls-9" d="M86,51V96H78V51a2,2,0,0,1,2-2h4A2,2,0,0,1,86,51Z"/><path class="cls-10" d="M72,60V96H64V60a2,2,0,0,1,2-2h4A2,2,0,0,1,72,60Z"/><path class="cls-11" d="M58,68V96H50V68a2,2,0,0,1,2-2h4A2,2,0,0,1,58,68Z"/><path class="cls-12" d="M194,27h0a1,1,0,0,1,1,1V94a1,1,0,0,1-1,1h0a1,1,0,0,1-1-1V28A1,1,0,0,1,194,27Z"/><path class="cls-12" d="M176,43V96h-2V43a1,1,0,0,1,2,0Z"/><path class="cls-12" d="M160,39V96h-2V39a1,1,0,0,1,2,0Z"/><path class="cls-12" d="M127,49V96h-2V49a1,1,0,0,1,2,0Z"/><path class="cls-12" d="M60,44.5V96H59V44.5a.51.51,0,0,1,.5-.5A.5.5,0,0,1,60,44.5Z"/><path class="cls-12" d="M26,49.5V96H25V49.5a.51.51,0,0,1,.5-.5A.5.5,0,0,1,26,49.5Z"/><path class="cls-12" d="M43,55V96H41V55a1,1,0,0,1,2,0Z"/><path class="cls-13" d="M192.14,10.74A12,12,0,0,1,206.49,22v.44a12,12,0,0,1-12,12h-.44a12,12,0,0,1-1.93-23.75Z"/><path class="cls-14" d="M194.5,15h0a1.5,1.5,0,0,1,1.5,1.5v7a1.5,1.5,0,0,1-1.5,1.5h0a1.5,1.5,0,0,1-1.5-1.5v-7A1.5,1.5,0,0,1,194.5,15Z"/><path class="cls-14" d="M194.5,27h0a1.5,1.5,0,0,1,1.5,1.5h0a1.5,1.5,0,0,1-1.5,1.5h0a1.5,1.5,0,0,1-1.5-1.5h0A1.5,1.5,0,0,1,194.5,27Z"/><circle class="cls-15" cx="7" cy="62" r="3"/><circle class="cls-15" cx="42.5" cy="54.5" r="1.5"/><circle class="cls-15" cx="59" cy="44" r="2"/><circle class="cls-15" cx="26" cy="49" r="2"/><circle class="cls-15" cx="75.5" cy="54.5" r="1.5"/><circle class="cls-15" cx="91.5" cy="62.5" r="1.5"/><circle class="cls-15" cx="109" cy="60" r="2"/><circle class="cls-15" cx="125.5" cy="48.5" r="1.5"/><circle class="cls-15" cx="142" cy="53" r="2"/><circle class="cls-15" cx="159.5" cy="37.5" r="1.5"/><circle class="cls-15" cx="174.5" cy="41.5" r="1.5"/><path class="cls-16" d="M7.5,62,26,49l16.5,5.5L58.5,44l17,10.5,16,8.5L109,60l16.5-11.5L142,53l17.5-15.5,15,4,11-10"/><path class="cls-17" d="M30,75V96H22V75a2,2,0,0,1,2-2h4A2,2,0,0,1,30,75Z"/><path class="cls-18" d="M44,66V96H36V66a2,2,0,0,1,2-2h4a1.87,1.87,0,0,1,1,.27A2,2,0,0,1,44,66Z"/><path class="cls-19" d="M128,70V96h-8V70a2,2,0,0,1,2-2h4a1.87,1.87,0,0,1,1,.27A2,2,0,0,1,128,70Z"/><path class="cls-20" d="M184,63V96h-8V63a2,2,0,0,1,2-2h4A2,2,0,0,1,184,63Z"/><path class="cls-21" d="M198,58V96h-8V58a2,2,0,0,1,2-2h4A2,2,0,0,1,198,58Z"/></g></g></svg>